<?xml version="1.0" encoding="UTF-8"?>
<svg width="41px" height="41px" viewBox="0 0 41 41" version="1.1" xmlns="http://www.w3.org/2000/svg" xmlns:xlink="http://www.w3.org/1999/xlink">
    <!-- Generator: Sketch 40.3 (33839) - http://www.bohemiancoding.com/sketch -->
    <title>Behance</title>
    <desc>Created with Sketch.</desc>
    <defs></defs>
    <g id="Page-1" stroke="none" stroke-width="1" fill="none" fill-rule="evenodd" opacity="0.5">
        <g id="GOARCHITECTS_1" transform="translate(-638.000000, -382.000000)" fill="#FFFFFF">
            <g id="FULL-WHITE" transform="translate(587.000000, 382.000000)">
                <path d="M71.3509007,0.531210673 C60.1825168,0.531210673 51.1285099,9.56179212 51.1285099,20.7012799 C51.1285099,31.8354557 60.1825168,40.8660371 71.3509007,40.8660371 C82.5139587,40.8660371 91.5679657,31.8354557 91.5679657,20.7012799 C91.5679657,9.56179212 82.5139587,0.531210673 71.3509007,0.531210673 L71.3509007,0.531210673 Z M74.2641606,15.3360521 L79.590047,15.3360521 L79.590047,16.9296842 L74.2641606,16.9296842 L74.2641606,15.3360521 Z M71.2337312,24.8287869 C71.010044,25.2006343 70.7224461,25.5140486 70.3815894,25.7637177 C69.9981256,26.0558835 69.5454252,26.2364952 69.0181625,26.3480494 C68.4962256,26.4542915 67.9316816,26.4914763 67.3192047,26.4914763 L62.0146218,26.4914763 L62.0146218,14.8048415 L67.7079944,14.8048415 C69.1832649,14.8048415 70.2218128,15.1713768 70.8342897,15.9947534 C71.2017759,16.4994035 71.3881819,17.0677989 71.3881819,17.768997 C71.3881819,18.4914435 71.2017759,19.0545269 70.8289638,19.4954317 C70.6212543,19.7451007 70.3176787,19.9628971 69.9129114,20.1647572 C70.5253883,20.3878656 70.9887404,20.7278405 71.3029677,21.2059301 C71.617195,21.6840197 71.7716457,22.2577272 71.7716457,22.9376769 C71.7716457,23.6441871 71.5958915,24.2763278 71.2337312,24.8287869 L71.2337312,24.8287869 Z M81.3901967,22.7730016 L74.8979411,22.7730016 C74.9352223,23.8354229 75.2441237,24.2603915 75.8299712,24.6109905 C76.1868056,24.834099 76.6128765,24.935029 77.1135099,24.935029 C77.6460985,24.935029 78.0774953,24.7650416 78.4077003,24.4994363 C78.5887804,24.3560094 78.7538829,24.3666336 78.88703,23.8354229 L81.2677013,23.8354229 C81.2037906,24.3666336 80.9161928,24.9456532 80.4049077,25.482176 C79.6060247,26.3321131 78.4875886,26.8208269 77.0495992,26.8208269 C75.8619265,26.8208269 74.8180528,26.4596036 73.9126521,25.7424692 C73.0019255,25.0200227 72.5492252,23.8513592 72.5492252,22.2258546 C72.5492252,20.7065921 72.9593184,19.5432407 73.7795049,18.7304883 C74.5996914,17.9230481 75.6595429,17.5140159 76.964385,17.5140159 C77.7419645,17.5140159 78.4396556,17.6521307 79.0627843,17.9230481 C79.685913,18.1992777 80.1971981,18.6295583 80.6019655,19.2245143 C80.9694516,19.7451007 81.2037906,20.3453688 81.3156343,21.0306306 C81.3795449,21.4343507 81.4008484,22.2417909 81.3901967,22.7730016 L81.3901967,22.7730016 Z M76.964385,19.3838775 C76.3678857,19.3838775 75.9045336,19.5326165 75.5743287,19.8672792 C75.2441237,20.1966298 75.0364141,20.6481589 74.9512,21.1793695 L78.9722442,21.1793695 C78.9296371,20.6481589 78.7219276,20.1435087 78.3491155,19.8247823 C77.9763035,19.511368 77.5182772,19.3838775 76.964385,19.3838775 Z M69.2311979,22.7730016 C69.2311979,23.5007602 68.9649036,23.9469772 68.4376408,24.2019583 C68.1447171,24.3453852 67.7399497,24.3666336 67.2126869,24.3666336 L64.1449764,24.3666336 L64.1449764,21.1793695 L67.255294,21.1793695 C67.771905,21.1793695 68.1766724,21.3121722 68.4642703,21.4396628 C68.9755554,21.6733955 69.2311979,22.1514851 69.2311979,22.7730016 Z M67.2180128,19.5857375 L64.1449764,19.5857375 L64.1449764,16.9296842 L66.9144373,16.9296842 C67.489633,16.9296842 67.9636369,16.8871873 68.336449,17.0093658 C68.7678458,17.1846653 68.9862071,17.4980796 68.9862071,18.0505387 C68.9862071,18.5498767 68.8211047,18.9934376 68.4962256,19.1899856 C68.1660206,19.3865335 67.7399497,19.5857375 67.2180128,19.5857375 Z" id="Behance"></path>
            </g>
        </g>
    </g>
</svg>