<?xml version="1.0" encoding="UTF-8"?>
<svg width="42px" height="41px" viewBox="0 0 42 41" version="1.1" xmlns="http://www.w3.org/2000/svg" xmlns:xlink="http://www.w3.org/1999/xlink">
    <!-- Generator: Sketch 40.3 (33839) - http://www.bohemiancoding.com/sketch -->
    <title>Fill 17</title>
    <desc>Created with Sketch.</desc>
    <defs></defs>
    <g id="Page-1" stroke="none" stroke-width="1" fill="none" fill-rule="evenodd" opacity="0.5">
        <g id="GOARCHITECTS_1" transform="translate(-739.000000, -382.000000)" fill="#FFFFFF">
            <g id="FULL-WHITE" transform="translate(587.000000, 382.000000)">
                <path d="M181.390447,27.7887107 L165.072905,27.7887107 C163.665717,27.7887107 162.439537,27.1265392 162.439537,26.1970532 L162.439537,16.7153631 L173.240434,23.4870052 L173.240434,21.6991029 C173.240434,21.5757513 162.461132,15.122807 162.50188,15.010986 C162.768176,14.2802077 163.852464,13.8114775 165.072905,13.8114775 L181.390447,13.8114775 C182.616571,13.8114775 183.726475,14.2885345 183.984869,15.0304346 C181.990733,16.2801759 173.240434,21.5828801 173.240434,21.6991029 L173.240434,23.4870052 L184.041332,16.7196605 L184.041332,26.1970532 C184.041332,27.1265392 182.791796,27.7887107 181.390447,27.7887107 Z M152.852941,20.7012799 C152.852941,31.8354557 161.906948,40.8660371 173.073201,40.8660371 C184.236259,40.8660371 193.290266,31.8354557 193.290266,20.7012799 C193.290266,9.56179212 183.182133,0.531210673 173.073201,0.531210673 C162.963471,0.531210673 152.852941,9.56179212 152.852941,20.7012799 Z" id="Fill-17"></path>
            </g>
        </g>
    </g>
</svg>