<?xml version="1.0" encoding="UTF-8"?>
<svg width="41px" height="41px" viewBox="0 0 41 41" version="1.1" xmlns="http://www.w3.org/2000/svg" xmlns:xlink="http://www.w3.org/1999/xlink">
    <!-- Generator: Sketch 40.3 (33839) - http://www.bohemiancoding.com/sketch -->
    <title>Facebook</title>
    <desc>Created with Sketch.</desc>
    <defs></defs>
    <g id="Page-1" stroke="none" stroke-width="1" fill="none" fill-rule="evenodd" opacity="0.5">
        <g id="GOARCHITECTS_1" transform="translate(-587.000000, -382.000000)" fill="#FFFFFF">
            <g id="FULL-WHITE" transform="translate(587.000000, 382.000000)">
                <path d="M20.2223908,0 C9.05400696,0 0,9.03058145 0,20.1700693 C0,31.304245 9.05400696,40.3348264 20.2223908,40.3348264 C31.3854488,40.3348264 40.4394558,31.304245 40.4394558,20.1700693 C40.4394558,9.03058145 31.3854488,0 20.2223908,0 L20.2223908,0 Z M30.0593031,28.6960006 C30.0593031,29.2909565 29.7663793,29.9236284 29.175206,29.9236284 L24.200828,29.9236284 L24.200828,22.486679 L26.7306241,22.486679 L27.1140879,19.299415 L24.200828,19.299415 L24.200828,17.3971496 C24.200828,16.5472125 24.4298411,16.1121509 25.654795,16.1121509 L27.3963599,16.1121509 L27.3963599,13.3333879 C26.8637712,13.2962032 26.0382588,13.2165216 24.9571039,13.2165216 C22.7095798,13.2165216 21.0052961,14.5870451 21.0052961,17.1049837 L21.0052961,19.299415 L18.3423529,19.299415 L18.3423529,22.486679 L21.0052961,22.486679 L21.0052961,29.9236284 L11.7808608,29.9236284 C11.1843615,29.9236284 10.8861119,29.2909565 10.8861119,28.6960006 L10.8861119,11.34666 C10.8861119,10.751704 11.1843615,10.2688335 11.7808608,10.2688335 L29.175206,10.2688335 C29.7663793,10.2688335 30.0593031,10.751704 30.0593031,11.34666 L30.0593031,28.6960006 L30.0593031,28.6960006 Z" id="Facebook"></path>
            </g>
        </g>
    </g>
</svg>