<?xml version="1.0" encoding="UTF-8"?>
<svg width="42px" height="41px" viewBox="0 0 42 41" version="1.1" xmlns="http://www.w3.org/2000/svg" xmlns:xlink="http://www.w3.org/1999/xlink">
    <!-- Generator: Sketch 40.3 (33839) - http://www.bohemiancoding.com/sketch -->
    <title>Group</title>
    <desc>Created with Sketch.</desc>
    <defs></defs>
    <g id="Page-1" stroke="none" stroke-width="1" fill="none" fill-rule="evenodd" opacity="0.5">
        <g id="GOARCHITECTS_1" transform="translate(-688.000000, -382.000000)" fill="#FFFFFF">
            <g id="FULL-WHITE" transform="translate(587.000000, 382.000000)">
                <g id="Group" transform="translate(101.000000, 0.000000)">
                    <path d="M20.946822,0.531210673 C9.77843807,0.531210673 0.724431117,9.56179212 0.724431117,20.7012799 C0.724431117,31.8354557 9.77843807,40.8660371 20.946822,40.8660371 C32.1098799,40.8660371 41.1638869,31.8354557 41.1638869,20.7012799 C41.1638869,9.56179212 32.1098799,0.531210673 20.946822,0.531210673 L20.946822,0.531210673 Z M31.3163229,28.0744841 C31.3163229,29.3493897 30.1765832,30.209951 28.8983704,30.209951 L14.0125178,30.209951 C12.7289792,30.209951 11.610543,29.3493897 11.610543,28.0744841 L11.610543,13.2165216 C11.610543,11.9416159 12.7289792,11.0863668 14.0125178,11.0863668 L28.8983704,11.0863668 C30.1765832,11.0863668 31.3163229,11.9416159 31.3163229,13.2165216 L31.3163229,28.0744841 L31.3163229,28.0744841 Z" id="Instagram-Circle"></path>
                    <path d="M18.0229103,20.7384647 C18.0229103,18.6720552 19.7005645,16.9987415 21.7723344,16.9987415 C23.8494301,16.9987415 25.5324102,18.6720552 25.5324102,20.7384647 C25.5324102,22.7995621 23.8494301,24.4728757 21.7723344,24.4728757 C19.7005645,24.4728757 18.0229103,22.7995621 18.0229103,20.7384647 Z M28.9516293,15.8566386 C28.9516293,16.1939574 28.6773461,16.4675309 28.3391523,16.4675309 L26.3685744,16.4675309 C26.0303806,16.4675309 25.7560974,16.1939574 25.7560974,15.8566386 L25.7560974,13.8911591 C25.7560974,13.5538403 26.0303806,13.2802668 26.3685744,13.2802668 L28.3391523,13.2802668 C28.6773461,13.2802668 28.9516293,13.5538403 28.9516293,13.8911591 L28.9516293,15.8566386 Z M27.2420197,19.1235842 L29.4842179,19.1235842 L29.4842179,28.0160509 C29.4842179,28.3560257 29.4096555,28.6853764 29.0741247,28.6853764 L14.4279369,28.6853764 C14.0924061,28.6853764 14.0391472,28.3560257 14.0391472,28.0160509 L14.0391472,19.1235842 L16.2600419,19.1235842 C15.9404887,19.1235842 15.833971,20.3134962 15.833971,20.855331 C15.833971,24.1116525 18.5022401,26.7092727 21.7723344,26.7092727 C25.0530804,26.7092727 27.7160236,24.1408691 27.7160236,20.8845476 C27.7160236,20.3427127 27.6361353,19.1235842 27.2420197,19.1235842 Z" id="Instagram"></path>
                </g>
            </g>
        </g>
    </g>
</svg>